<svg width="16" height="17" viewBox="0 0 16 17" fill="none" xmlns="http://www.w3.org/2000/svg">
<path d="M7.72848 1.37964C8.3443 1.37985 8.84762 1.88389 8.84762 2.49976V2.85913C8.84975 2.87583 8.8525 2.89264 8.8525 2.90991V2.9939C8.96311 2.95513 9.0819 2.93922 9.20016 2.93921H9.26363C9.87953 2.93921 10.3836 3.44347 10.3837 4.05933V6.50757C10.7118 6.13157 11.2643 5.85155 11.7763 6.09155L11.9199 6.16382C12.5038 6.53978 12.6162 7.0196 12.3203 7.9314C12.2716 8.09349 11.5837 10.3807 10.2324 11.78L10.2158 11.7957L10.1035 11.9089C9.57418 12.4667 9.55636 12.9041 9.50387 14.0515L9.47164 14.8201H4.54391V14.3318C4.54391 12.6279 4.24009 11.9551 3.95211 11.3152C3.63219 10.6114 3.3359 9.94696 3.46383 8.34741L3.48824 4.45972C3.48824 3.86774 3.96855 3.3875 4.56051 3.38745H4.62398C4.75198 3.38745 4.87234 3.4119 4.98434 3.4519V3.01929C4.98452 2.4419 5.42731 1.96258 5.9902 1.90503L6.10445 1.89917H6.17574C6.30167 1.89917 6.4235 1.91746 6.53707 1.95679L6.6484 2.00366C6.81641 1.66772 7.13732 1.44156 7.49898 1.39038L7.65621 1.37964H7.72848ZM5.27633 13.0515C5.30998 13.3388 5.33277 13.6585 5.34078 14.0193H8.70504V14.0154C8.72076 13.6717 8.7362 13.3493 8.76949 13.0515H5.27633ZM7.65621 2.17944C7.53449 2.17948 7.41937 2.24892 7.36324 2.36108C7.3485 2.39055 7.3305 2.4179 7.31246 2.44507C7.31335 2.45594 7.31636 2.46717 7.31637 2.47827V6.90698C7.31601 7.12759 7.13667 7.3064 6.91598 7.3064C6.69548 7.30616 6.51595 7.12745 6.51559 6.90698V2.79175C6.4379 2.77879 6.36166 2.75531 6.29 2.71948C6.27567 2.71234 6.24203 2.69995 6.17574 2.69995H6.10445C5.93044 2.7 5.78434 2.8453 5.78414 3.01929V3.4519C5.78413 3.47126 5.78163 3.49038 5.78023 3.50952C5.78026 3.51131 5.78121 3.51358 5.78121 3.51538V6.90698C5.78089 7.12757 5.60147 7.30632 5.38082 7.3064C5.16011 7.3064 4.98075 7.12762 4.98043 6.90698V4.24976C4.89103 4.24937 4.80115 4.23567 4.7148 4.20483C4.67899 4.19207 4.64991 4.18726 4.62398 4.18726H4.56051C4.41037 4.1873 4.28805 4.30957 4.28805 4.45972V4.4646L4.26363 8.35229C4.26351 8.37186 4.26324 8.39236 4.26168 8.41187C4.20245 9.15289 4.24437 9.6381 4.32223 9.99878C4.38079 10.27 4.46347 10.4915 4.56832 10.7332L4.68062 10.9841L4.6816 10.9871C4.82679 11.3097 5.00279 11.6971 5.13375 12.2361C5.13492 12.2409 5.13552 12.2459 5.13668 12.2507H8.94723C9.09499 11.8598 9.32644 11.5428 9.65621 11.2244L9.66598 11.2136C10.245 10.6103 10.7069 9.78888 11.0361 9.06128C11.3617 8.34154 11.534 7.76749 11.5537 7.7019L11.5595 7.68433C11.6928 7.27366 11.6855 7.09305 11.6699 7.02417C11.6655 7.00476 11.6585 6.95316 11.5107 6.85327L11.4345 6.81519C11.4047 6.80163 11.3625 6.79299 11.2812 6.82202C11.1869 6.85583 11.0765 6.93168 10.9873 7.03394C10.768 7.28503 10.4156 7.37354 10.1035 7.25659C9.79127 7.13955 9.58405 6.84098 9.58395 6.50757V4.05933C9.58377 3.88529 9.4377 3.73999 9.26363 3.73999H9.20016C9.14905 3.74 9.12358 3.7465 9.11715 3.74878C9.03103 3.77952 8.94152 3.79327 8.8525 3.7937V6.90601C8.8525 7.12692 8.67302 7.3064 8.45211 7.3064C8.23121 7.30638 8.05172 7.12691 8.05172 6.90601V3.0603C8.04997 3.03893 8.04782 3.0175 8.04781 2.99585V2.49976C8.04781 2.32571 7.90247 2.17966 7.72848 2.17944H7.65621Z" fill="#1F1722"/>
</svg>
